HIERARCHY
ROOT Hips
{
	OFFSET 0.000000 0.000000 0.000000
	CHANNELS 6 Xposition Yposition Zposition Xrotation Yrotation Zrotation
	JOINT Spine
	{
		OFFSET 0.000000 -0.646012 3.217880
		CHANNELS 6 Xposition Yposition Zposition Xrotation Yrotation Zrotation
		JOINT Spine1
		{
			OFFSET 0.000000 0.983772 5.509130
			CHANNELS 6 Xposition Yposition Zposition Xrotation Yrotation Zrotation
			JOINT Spine2
			{
				OFFSET 0.000000 -0.447618 4.176110
				CHANNELS 6 Xposition Yposition Zposition Xrotation Yrotation Zrotation
				JOINT Spine3
				{
					OFFSET 0.000000 -1.485501 4.997561
					CHANNELS 6 Xposition Yposition Zposition Xrotation Yrotation Zrotation
					JOINT Spine4
					{
						OFFSET 0.000000 0.757504 7.397970
						CHANNELS 6 Xposition Yposition Zposition Xrotation Yrotation Zrotation
						JOINT Neck
						{
							OFFSET 0.000000 2.474189 3.531740
							CHANNELS 6 Xposition Yposition Zposition Xrotation Yrotation Zrotation
							JOINT Head
							{
								OFFSET 0.000000 1.269069 4.240059
								CHANNELS 6 Xposition Yposition Zposition Xrotation Yrotation Zrotation
								End Site
								{
									OFFSET 0.000000 0.427940 8.844120
								}
							}
						}
					}
					JOINT LeftShoulder
					{
						OFFSET -2.124950 4.240058 8.991680
						CHANNELS 6 Xposition Yposition Zposition Xrotation Yrotation Zrotation
						JOINT LeftArm
						{
							OFFSET -4.608000 -1.628150 -1.269070
							CHANNELS 6 Xposition Yposition Zposition Xrotation Yrotation Zrotation
							JOINT LeftForeArm
							{
								OFFSET -16.097200 -1.149000 -0.734705
								CHANNELS 6 Xposition Yposition Zposition Xrotation Yrotation Zrotation
								JOINT LeftHand
								{
									OFFSET -13.650402 -0.974348 -0.943317
									CHANNELS 6 Xposition Yposition Zposition Xrotation Yrotation Zrotation
									End Site
									{
										OFFSET -4.981701 -0.355566 -0.344263
									}
								}
							}
						}
					}
					JOINT RightShoulder
					{
						OFFSET 2.124950 4.240058 8.991680
						CHANNELS 6 Xposition Yposition Zposition Xrotation Yrotation Zrotation
						JOINT RightArm
						{
							OFFSET 4.608000 -1.628150 -1.269070
							CHANNELS 6 Xposition Yposition Zposition Xrotation Yrotation Zrotation
							JOINT RightForeArm
							{
								OFFSET 16.097200 -1.149000 -0.734705
								CHANNELS 6 Xposition Yposition Zposition Xrotation Yrotation Zrotation
								JOINT RightHand
								{
									OFFSET 13.650402 -0.974348 -0.943317
									CHANNELS 6 Xposition Yposition Zposition Xrotation Yrotation Zrotation
									End Site
									{
										OFFSET 4.981701 -0.355566 -0.344263
									}
								}
							}
						}
					}
				}
			}
		}
	}
	JOINT LeftUpLeg
	{
		OFFSET -4.313530 0.323005 -1.608940
		CHANNELS 6 Xposition Yposition Zposition Xrotation Yrotation Zrotation
		JOINT LeftLeg
		{
			OFFSET -1.163420 0.356368 -22.796801
			CHANNELS 6 Xposition Yposition Zposition Xrotation Yrotation Zrotation
			JOINT LeftFoot
			{
				OFFSET -1.121280 -1.777507 -20.668699
				CHANNELS 6 Xposition Yposition Zposition Xrotation Yrotation Zrotation
				JOINT LeftToeBase
				{
					OFFSET 0.000000 6.880780 -2.590649
					CHANNELS 6 Xposition Yposition Zposition Xrotation Yrotation Zrotation
					End Site
					{
						OFFSET 0.000000 4.145050 -1.036259
					}
				}
			}
		}
	}
	JOINT RightUpLeg
	{
		OFFSET 4.313530 0.323005 -1.608940
		CHANNELS 6 Xposition Yposition Zposition Xrotation Yrotation Zrotation
		JOINT RightLeg
		{
			OFFSET 1.163420 0.356368 -22.796801
			CHANNELS 6 Xposition Yposition Zposition Xrotation Yrotation Zrotation
			JOINT RightFoot
			{
				OFFSET 1.121280 -1.777507 -20.668699
				CHANNELS 6 Xposition Yposition Zposition Xrotation Yrotation Zrotation
				JOINT RightToeBase
				{
					OFFSET 0.000000 6.880780 -2.590649
					CHANNELS 6 Xposition Yposition Zposition Xrotation Yrotation Zrotation
					End Site
					{
						OFFSET 0.000000 4.145050 -1.036259
					}
				}
			}
		}
	}
}
MOTION
Frames: 4
Frame Time: 0.041667
0.000000 -5.068543 17.259197 -0.000000 0.000000 -0.000000 0.000000 -0.646012 3.217880 0.000001 0.000000 -0.000000 0.000000 0.983773 5.509125 0.000000 0.000000 -0.000000 0.000000 -0.447618 4.176114 -0.000000 0.000000 -0.000000 0.000000 -1.485501 4.997561 -0.000000 0.000000 -0.000000 0.000000 0.757502 7.397968 -0.000000 0.000000 -0.000000 0.000000 2.474188 3.531740 -0.000000 0.000000 -0.000000 0.000000 1.269068 4.240055 -0.000000 0.000000 -0.000000 -2.124951 4.240057 8.991682 -0.000004 -0.000001 0.000001 -4.608000 -1.628148 -1.269068 -0.000001 -0.000000 0.000001 -16.097200 -1.148999 -0.734711 -0.000001 -0.000000 -0.000000 -13.650406 -0.974348 -0.943315 -0.000001 0.000000 -0.000000 2.124951 4.240057 8.991682 -0.000004 0.000001 -0.000001 4.608000 -1.628148 -1.269068 -0.000001 0.000000 -0.000001 16.097200 -1.148999 -0.734711 -0.000001 0.000000 0.000000 13.650406 -0.974348 -0.943315 -0.000001 -0.000000 0.000000 -4.313529 0.323005 -1.608939 0.000000 0.000000 0.000000 -1.163420 0.356367 -22.796799 0.000000 0.000000 -0.000002 -1.121279 -1.777506 -20.668695 0.000002 -0.000000 -0.000003 0.000000 6.880779 -2.590652 0.000002 -0.000000 0.000000 4.313529 0.323005 -1.608939 0.000000 -0.000000 -0.000000 1.163420 0.356367 -22.796799 0.000000 -0.000000 0.000002 1.121279 -1.777506 -20.668695 0.000002 0.000000 0.000003 -0.000000 6.880779 -2.590652 0.000002 0.000000 -0.000000 
0.695977 -5.274878 50.122398 -8.231283 3.231270 -1.874981 -0.000000 -0.646013 3.217887 0.000120 -1.312006 0.004996 0.000000 0.983771 5.509126 4.049705 -2.185960 0.009852 -0.000000 -0.447617 4.176109 3.909089 -2.185959 0.029558 0.000000 -1.485499 4.997566 2.277939 -1.311570 0.004926 -0.000000 0.757504 7.397978 2.334326 -0.436827 0.017807 -0.000000 2.474189 3.531739 6.311167 2.616982 -25.340395 0.000000 1.269067 4.240055 3.324573 2.850633 -38.342558 -2.124951 4.240059 8.991682 0.517612 22.951194 -28.740155 -4.608003 -1.628150 -1.269071 51.454264 11.809210 50.377423 -16.097204 -1.149003 -0.734702 -29.734136 9.226085 -15.609988 -13.650403 -0.974346 -0.943319 0.350428 13.319676 -1.520735 2.124951 4.240059 8.991693 0.481354 -22.884255 28.651397 4.607995 -1.628152 -1.269076 67.339723 -18.035408 -48.970144 16.097198 -1.148990 -0.734704 -73.516987 -16.629682 4.801267 13.650401 -0.974349 -0.943296 2.458685 -10.895092 12.798907 -4.313529 0.323004 -1.608936 27.385551 -7.614679 18.900151 -1.163421 0.356367 -22.796801 -17.859109 7.010984 -15.676211 -1.121278 -1.777505 -20.668703 -12.046941 8.529019 -0.007091 -0.000000 6.880779 -2.590648 5.390488 0.000004 -0.000001 4.313530 0.323005 -1.608938 24.025974 2.457928 49.605608 1.163419 0.356368 -22.796799 -19.366873 6.449891 -12.496361 1.121280 -1.777506 -20.668701 0.807803 14.082945 -0.034060 -0.000000 6.880776 -2.590650 28.648508 -0.000025 0.000009 
0.690254 -5.270798 50.125999 -8.194082 3.232482 -1.753787 -0.000000 -0.646011 3.217882 0.000141 -1.298005 0.006007 0.000000 0.983772 5.509130 4.042271 -2.163730 0.012228 -0.000000 -0.447618 4.176116 3.880435 -2.163729 0.036683 0.000000 -1.485501 4.997562 2.209363 -1.298240 0.006114 -0.000000 0.757500 7.397959 2.480303 -0.432341 0.018727 0.000001 2.474192 3.531734 6.695075 2.437410 -25.355961 0.000000 1.269072 4.240068 3.424397 2.772114 -38.343019 -2.124951 4.240058 8.991680 0.497579 22.944810 -28.688700 -4.607997 -1.628149 -1.269085 51.535765 11.579927 50.328765 -16.097200 -1.149002 -0.734714 -29.889458 9.276976 -15.550423 -13.650402 -0.974348 -0.943321 0.390919 12.948099 -1.744130 2.124951 4.240057 8.991675 0.477274 -22.899244 28.640419 4.608000 -1.628142 -1.269076 67.258819 -18.155034 -48.986817 16.097193 -1.149005 -0.734706 -74.069379 -16.756508 4.661357 13.650409 -0.974348 -0.943314 2.400621 -10.847547 12.558363 -4.313529 0.323005 -1.608941 27.302911 -7.644269 18.887565 -1.163417 0.356369 -22.796799 -17.745566 6.955399 -15.638014 -1.121279 -1.777506 -20.668695 -12.082722 8.381021 -0.029317 0.000000 6.880780 -2.590652 5.407506 0.000004 -0.000000 4.313531 0.323005 -1.608941 23.927298 2.399793 49.447889 1.163419 0.356367 -22.796803 -19.304669 6.335579 -12.456294 1.121279 -1.777506 -20.668697 0.818421 14.172548 -0.026570 0.000001 6.880778 -2.590654 28.648409 -0.000024 0.000012 
0.691831 -5.233358 50.127800 -8.168874 3.228721 -1.617561 -0.000000 -0.646013 3.217880 0.000116 -1.286994 0.004996 0.000000 0.983774 5.509126 4.040215 -2.145239 0.010842 0.000000 -0.447617 4.176115 3.857660 -2.145240 0.032526 0.000000 -1.485501 4.997564 2.145794 -1.287150 0.005421 -0.000001 0.757501 7.397960 2.624756 -0.428598 0.019647 0.000001 2.474191 3.531745 7.054040 2.226120 -25.344083 -0.000000 1.269067 4.240045 3.514939 2.685985 -38.346577 -2.124950 4.240057 8.991677 0.475403 22.949506 -28.632057 -4.608002 -1.628150 -1.269075 51.576111 11.400331 50.333334 -16.097204 -1.149013 -0.734715 -30.025314 9.312728 -15.506408 -13.650400 -0.974353 -0.943315 0.386449 12.599471 -1.771071 2.124950 4.240057 8.991673 0.482603 -22.894792 28.653825 4.608000 -1.628146 -1.269088 67.118643 -18.347418 -49.055153 16.097200 -1.149014 -0.734706 -74.480262 -16.829356 4.570125 13.650405 -0.974348 -0.943322 2.352455 -10.866878 12.292887 -4.313529 0.323004 -1.608941 27.240577 -7.665667 18.878351 -1.163421 0.356366 -22.796799 -17.672831 6.938518 -15.595096 -1.121278 -1.777504 -20.668694 -12.073041 8.250016 -0.041442 -0.000000 6.880780 -2.590655 5.423546 0.000005 -0.000000 4.313531 0.323005 -1.608941 23.852533 2.365449 49.272571 1.163419 0.356368 -22.796801 -19.335279 6.262422 -12.451486 1.121282 -1.777506 -20.668703 0.884038 14.200446 -0.024114 0.000000 6.880777 -2.590652 28.648604 -0.000022 0.000011 
